<svg width="41" height="41" viewBox="0 0 41 41" fill="none" xmlns="http://www.w3.org/2000/svg">
<path fill-rule="evenodd" clip-rule="evenodd" d="M16.9629 3.75415C16.2998 3.75415 15.664 4.01754 15.1951 4.48638C14.7263 4.95522 14.4629 5.59111 14.4629 6.25415H11.9629C11.2998 6.25415 10.664 6.51754 10.1951 6.98638C9.72628 7.45522 9.46289 8.09111 9.46289 8.75415V32.0875C9.46289 32.7505 9.72628 33.3864 10.1951 33.8553C10.664 34.3241 11.2998 34.5875 11.9629 34.5875H21.9629V32.9208H11.9629C11.7419 32.9208 11.5299 32.833 11.3736 32.6767C11.2174 32.5205 11.1296 32.3085 11.1296 32.0875V8.75415C11.1296 8.53314 11.2174 8.32118 11.3736 8.1649C11.5299 8.00862 11.7419 7.92082 11.9629 7.92082H14.4629C14.4629 8.58386 14.7263 9.21974 15.1951 9.68858C15.664 10.1574 16.2998 10.4208 16.9629 10.4208H23.6296C24.2926 10.4208 24.9285 10.1574 25.3973 9.68858C25.8662 9.21974 26.1296 8.58386 26.1296 7.92082H28.6296C28.8506 7.92082 29.0625 8.00862 29.2188 8.1649C29.3751 8.32118 29.4629 8.53314 29.4629 8.75415V21.2542H31.1296V8.75415C31.1296 8.09111 30.8662 7.45522 30.3973 6.98638C29.9285 6.51754 29.2926 6.25415 28.6296 6.25415H26.1296C26.1296 5.59111 25.8662 4.95522 25.3973 4.48638C24.9285 4.01754 24.2926 3.75415 23.6296 3.75415H16.9629ZM16.1296 6.25415C16.1296 6.03314 16.2174 5.82118 16.3736 5.66489C16.5299 5.50861 16.7419 5.42082 16.9629 5.42082H23.6296C23.8506 5.42082 24.0625 5.50861 24.2188 5.66489C24.3751 5.82118 24.4629 6.03314 24.4629 6.25415V7.92082C24.4629 8.14183 24.3751 8.35379 24.2188 8.51007C24.0625 8.66635 23.8506 8.75415 23.6296 8.75415H16.9629C16.7419 8.75415 16.5299 8.66635 16.3736 8.51007C16.2174 8.35379 16.1296 8.14183 16.1296 7.92082V6.25415ZM19.4629 16.2542V13.7542H21.1296V16.2542H23.6296V17.9208H21.1296V20.4208H19.4629V17.9208H16.9629V16.2542H19.4629ZM22.7962 23.7542C22.7962 23.5331 22.884 23.3212 23.0403 23.1649C23.1966 23.0086 23.4085 22.9208 23.6296 22.9208H33.6296C33.8506 22.9208 34.0625 23.0086 34.2188 23.1649C34.3751 23.3212 34.4629 23.5331 34.4629 23.7542V29.4117C34.4629 30.3719 34.2257 31.3173 33.7726 32.164C33.3195 33.0106 32.6644 33.7323 31.8654 34.265L29.0921 36.115C28.9551 36.2064 28.7942 36.2551 28.6296 36.2551C28.4649 36.2551 28.304 36.2064 28.1671 36.115L25.3937 34.265C24.5949 33.7324 23.9398 33.0108 23.4867 32.1643C23.0336 31.3179 22.7964 30.3726 22.7962 29.4125V23.7542ZM24.4629 24.5875V29.4117C24.463 30.0976 24.6324 30.7729 24.9561 31.3777C25.2799 31.9824 25.7479 32.4979 26.3187 32.8783L28.6296 34.4208L30.9404 32.8792C31.5112 32.4987 31.9792 31.9833 32.303 31.3785C32.6267 30.7738 32.7961 30.0984 32.7962 29.4125V24.5875H24.4629ZM28.3854 31.01L31.7187 27.6767L30.5404 26.4983L27.7962 29.2425L26.7187 28.165L25.5404 29.3433L27.2071 31.01C27.3633 31.1662 27.5753 31.254 27.7962 31.254C28.0172 31.254 28.2291 31.1662 28.3854 31.01Z" fill="#A7A7A7"/>
</svg>
