<svg width="41" height="41" viewBox="0 0 41 41" fill="none" xmlns="http://www.w3.org/2000/svg">
<path d="M21.9258 19.4209C21.9258 19.1557 21.8204 18.9013 21.6329 18.7138C21.4454 18.5263 21.191 18.4209 20.9258 18.4209C20.6606 18.4209 20.4062 18.5263 20.2187 18.7138C20.0311 18.9013 19.9258 19.1557 19.9258 19.4209V23.4209H15.9258C15.6606 23.4209 15.4062 23.5263 15.2187 23.7138C15.0311 23.9013 14.9258 24.1557 14.9258 24.4209C14.9258 24.6861 15.0311 24.9405 15.2187 25.128C15.4062 25.3155 15.6606 25.4209 15.9258 25.4209H19.9258V29.4209C19.9258 29.6861 20.0311 29.9405 20.2187 30.128C20.4062 30.3155 20.6606 30.4209 20.9258 30.4209C21.191 30.4209 21.4454 30.3155 21.6329 30.128C21.8204 29.9405 21.9258 29.6861 21.9258 29.4209V25.4209H25.9258C26.191 25.4209 26.4454 25.3155 26.6329 25.128C26.8204 24.9405 26.9258 24.6861 26.9258 24.4209C26.9258 24.1557 26.8204 23.9013 26.6329 23.7138C26.4454 23.5263 26.191 23.4209 25.9258 23.4209H21.9258V19.4209ZM14.9258 7.4209C14.9258 7.15568 15.0311 6.90133 15.2187 6.71379C15.4062 6.52626 15.6606 6.4209 15.9258 6.4209H25.9258C26.191 6.4209 26.4454 6.52626 26.6329 6.71379C26.8204 6.90133 26.9258 7.15568 26.9258 7.4209V12.4209H30.9258C32.5171 12.4209 34.0432 13.053 35.1684 14.1783C36.2936 15.3035 36.9258 16.8296 36.9258 18.4209V30.4209C36.9258 32.0122 36.2936 33.5383 35.1684 34.6635C34.0432 35.7888 32.5171 36.4209 30.9258 36.4209H10.9258C9.33448 36.4209 7.80836 35.7888 6.68314 34.6635C5.55792 33.5383 4.92578 32.0122 4.92578 30.4209V18.4209C4.92578 16.8296 5.55792 15.3035 6.68314 14.1783C7.80836 13.053 9.33448 12.4209 10.9258 12.4209H14.9258V7.4209ZM24.9258 8.4209H16.9258V12.4209H24.9258V8.4209ZM10.9258 14.4209C9.86492 14.4209 8.8475 14.8423 8.09735 15.5925C7.34721 16.3426 6.92578 17.36 6.92578 18.4209V30.4209C6.92578 31.4818 7.34721 32.4992 8.09735 33.2493C8.8475 33.9995 9.86492 34.4209 10.9258 34.4209H30.9258C31.9866 34.4209 33.0041 33.9995 33.7542 33.2493C34.5044 32.4992 34.9258 31.4818 34.9258 30.4209V18.4209C34.9258 17.36 34.5044 16.3426 33.7542 15.5925C33.0041 14.8423 31.9866 14.4209 30.9258 14.4209H10.9258Z" fill="#A7A7A7"/>
</svg>
