<svg width="24" height="24" viewBox="0 0 24 24" fill="none" xmlns="http://www.w3.org/2000/svg">
<path d="M12 8.09462C9.8496 8.09462 8.09471 9.8495 8.09471 11.9999C8.09471 14.1503 9.8496 15.9052 12 15.9052C14.1504 15.9052 15.9053 14.1503 15.9053 11.9999C15.9053 9.8495 14.1504 8.09462 12 8.09462ZM23.7129 11.9999C23.7129 10.3827 23.7275 8.78017 23.6367 7.16591C23.5459 5.29091 23.1182 3.62685 21.7471 2.25575C20.373 0.881731 18.7119 0.456926 16.8369 0.366106C15.2197 0.275285 13.6172 0.289934 12.0029 0.289934C10.3857 0.289934 8.78319 0.275285 7.16893 0.366106C5.29393 0.456926 3.62987 0.88466 2.25878 2.25575C0.884752 3.62978 0.459947 5.29091 0.369127 7.16591C0.278307 8.7831 0.292955 10.3856 0.292955 11.9999C0.292955 13.6142 0.278307 15.2196 0.369127 16.8339C0.459947 18.7089 0.887682 20.3729 2.25878 21.744C3.6328 23.1181 5.29393 23.5429 7.16893 23.6337C8.78612 23.7245 10.3887 23.7099 12.0029 23.7099C13.6201 23.7099 15.2226 23.7245 16.8369 23.6337C18.7119 23.5429 20.376 23.1151 21.7471 21.744C23.1211 20.37 23.5459 18.7089 23.6367 16.8339C23.7305 15.2196 23.7129 13.6171 23.7129 11.9999ZM12 18.0087C8.67479 18.0087 5.9912 15.3251 5.9912 11.9999C5.9912 8.6747 8.67479 5.99111 12 5.99111C15.3252 5.99111 18.0088 8.6747 18.0088 11.9999C18.0088 15.3251 15.3252 18.0087 12 18.0087ZM18.2549 7.14833C17.4785 7.14833 16.8515 6.52138 16.8515 5.74501C16.8515 4.96865 17.4785 4.34169 18.2549 4.34169C19.0312 4.34169 19.6582 4.96865 19.6582 5.74501C19.6584 5.92936 19.6223 6.11195 19.5518 6.28231C19.4814 6.45268 19.378 6.60747 19.2477 6.73783C19.1173 6.86818 18.9625 6.97154 18.7922 7.04198C18.6218 7.11242 18.4392 7.14856 18.2549 7.14833Z" fill="#333333"/>
</svg>
