<svg width="41" height="41" viewBox="0 0 41 41" fill="none" xmlns="http://www.w3.org/2000/svg">
<path d="M38.4439 21.0459C38.4414 19.4166 37.9682 17.8228 37.0812 16.4561C36.1941 15.0895 34.931 14.0083 33.4439 13.3428V11.6709C33.4433 10.0845 32.918 8.54287 31.9497 7.28627C30.9814 6.02967 29.6246 5.12872 28.0907 4.72386C26.5568 4.31899 24.9321 4.43295 23.4698 5.04799C22.0075 5.66302 20.7897 6.74456 20.0064 8.12403C19.223 6.74456 18.0052 5.66302 16.5429 5.04799C15.0806 4.43295 13.4559 4.31899 11.922 4.72386C10.3882 5.12872 9.03135 6.02967 8.06305 7.28627C7.09476 8.54287 6.5694 10.0845 6.56886 11.6709V13.3428C5.08154 14.0075 3.81846 15.0886 2.93215 16.4556C2.04585 17.8225 1.57422 19.4168 1.57422 21.0459C1.57422 22.675 2.04585 24.2693 2.93215 25.6362C3.81846 27.0032 5.08154 28.0843 6.56886 28.749V29.1709C6.5694 30.7573 7.09476 32.2989 8.06305 33.5555C9.03135 34.8121 10.3882 35.7131 11.922 36.1179C13.4559 36.5228 15.0806 36.4088 16.5429 35.7938C18.0052 35.1788 19.223 34.0972 20.0064 32.7178C20.7897 34.0972 22.0075 35.1788 23.4698 35.7938C24.9321 36.4088 26.5568 36.5228 28.0907 36.1179C29.6246 35.7131 30.9814 34.8121 31.9497 33.5555C32.918 32.2989 33.4433 30.7573 33.4439 29.1709V28.749C34.931 28.0835 36.1941 27.0023 37.0812 25.6357C37.9682 24.269 38.4414 22.6752 38.4439 21.0459ZM13.7564 34.4834C12.3779 34.4802 11.0542 33.9429 10.0636 32.9843C9.07293 32.0257 8.49237 30.7204 8.44386 29.3428C8.95938 29.4368 9.48235 29.4838 10.0064 29.4834H11.2564C11.505 29.4834 11.7435 29.3846 11.9193 29.2088C12.0951 29.033 12.1939 28.7945 12.1939 28.5459C12.1939 28.2973 12.0951 28.0588 11.9193 27.883C11.7435 27.7072 11.505 27.6084 11.2564 27.6084H10.0064C8.45814 27.6086 6.95969 27.0614 5.77592 26.0636C4.59214 25.0658 3.79927 23.6815 3.53747 22.1556C3.27567 20.6297 3.5618 19.0603 4.34527 17.725C5.12874 16.3896 6.35911 15.3743 7.81886 14.8584C8.00273 14.7934 8.16176 14.6727 8.27378 14.513C8.38581 14.3534 8.44526 14.1628 8.44386 13.9678V11.6709C8.44386 10.2619 9.00357 8.91068 9.99986 7.9144C10.9961 6.91811 12.3474 6.3584 13.7564 6.3584C15.1653 6.3584 16.5166 6.91811 17.5129 7.9144C18.5092 8.91068 19.0689 10.2619 19.0689 11.6709V24.3272C18.3957 23.5877 17.5753 22.9972 16.6604 22.5936C15.7455 22.19 14.7563 21.9821 13.7564 21.9834C13.5077 21.9834 13.2693 22.0822 13.0934 22.258C12.9176 22.4338 12.8189 22.6723 12.8189 22.9209C12.8189 23.1695 12.9176 23.408 13.0934 23.5838C13.2693 23.7596 13.5077 23.8584 13.7564 23.8584C15.1653 23.8584 16.5166 24.4181 17.5129 25.4144C18.5092 26.4107 19.0689 27.7619 19.0689 29.1709C19.0689 30.5799 18.5092 31.9311 17.5129 32.9274C16.5166 33.9237 15.1653 34.4834 13.7564 34.4834ZM30.0064 27.6084H28.7564C28.5077 27.6084 28.2693 27.7072 28.0934 27.883C27.9176 28.0588 27.8189 28.2973 27.8189 28.5459C27.8189 28.7945 27.9176 29.033 28.0934 29.2088C28.2693 29.3846 28.5077 29.4834 28.7564 29.4834H30.0064C30.5304 29.4838 31.0533 29.4368 31.5689 29.3428C31.5351 30.3855 31.1951 31.3952 30.5912 32.246C29.9873 33.0967 29.1463 33.7508 28.1731 34.1266C27.1999 34.5025 26.1375 34.5835 25.1186 34.3595C24.0996 34.1355 23.1692 33.6165 22.4433 32.8671C21.7174 32.1178 21.2283 31.1713 21.0368 30.1457C20.8454 29.1202 20.9602 28.0609 21.3668 27.1002C21.7735 26.1394 22.454 25.3197 23.3235 24.7432C24.1931 24.1667 25.2131 23.8589 26.2564 23.8584C26.505 23.8584 26.7435 23.7596 26.9193 23.5838C27.0951 23.408 27.1939 23.1695 27.1939 22.9209C27.1939 22.6723 27.0951 22.4338 26.9193 22.258C26.7435 22.0822 26.505 21.9834 26.2564 21.9834C25.2564 21.9821 24.2672 22.19 23.3523 22.5936C22.4374 22.9972 21.617 23.5877 20.9439 24.3272V11.6709C20.9439 10.2619 21.5036 8.91068 22.4999 7.9144C23.4961 6.91811 24.8474 6.3584 26.2564 6.3584C27.6653 6.3584 29.0166 6.91811 30.0129 7.9144C31.0092 8.91068 31.5689 10.2619 31.5689 11.6709V13.9678C31.5675 14.1628 31.6269 14.3534 31.7389 14.513C31.851 14.6727 32.01 14.7934 32.1939 14.8584C33.6536 15.3743 34.884 16.3896 35.6674 17.725C36.4509 19.0603 36.737 20.6297 36.4753 22.1556C36.2134 23.6815 35.4206 25.0658 34.2368 26.0636C33.053 27.0614 31.5546 27.6086 30.0064 27.6084ZM9.38136 20.1084C9.13272 20.1084 8.89426 20.0096 8.71845 19.8338C8.54263 19.658 8.44386 19.4195 8.44386 19.1709C8.44386 18.9223 8.54263 18.6838 8.71845 18.508C8.89426 18.3322 9.13272 18.2334 9.38136 18.2334C10.2918 18.2293 11.1637 17.8658 11.8075 17.222C12.4513 16.5783 12.8147 15.7063 12.8189 14.7959V13.5459C12.8189 13.2973 12.9176 13.0588 13.0934 12.883C13.2693 12.7072 13.5077 12.6084 13.7564 12.6084C14.005 12.6084 14.2435 12.7072 14.4193 12.883C14.5951 13.0588 14.6939 13.2973 14.6939 13.5459V14.7959C14.6897 16.2036 14.1287 17.5525 13.1333 18.5479C12.1379 19.5432 10.7891 20.1043 9.38136 20.1084ZM31.5689 19.1709C31.5689 19.4195 31.4701 19.658 31.2943 19.8338C31.1185 20.0096 30.88 20.1084 30.6314 20.1084C29.2237 20.1043 27.8748 19.5432 26.8794 18.5479C25.884 17.5525 25.323 16.2036 25.3189 14.7959V13.5459C25.3189 13.2973 25.4176 13.0588 25.5934 12.883C25.7693 12.7072 26.0077 12.6084 26.2564 12.6084C26.505 12.6084 26.7435 12.7072 26.9193 12.883C27.0951 13.0588 27.1939 13.2973 27.1939 13.5459V14.7959C27.198 15.7063 27.5615 16.5783 28.2052 17.222C28.849 17.8658 29.7209 18.2293 30.6314 18.2334C30.88 18.2334 31.1185 18.3322 31.2943 18.508C31.4701 18.6838 31.5689 18.9223 31.5689 19.1709Z" fill="#A7A7A7"/>
</svg>
