<svg width="41" height="41" viewBox="0 0 41 41" fill="none" xmlns="http://www.w3.org/2000/svg">
<path fill-rule="evenodd" clip-rule="evenodd" d="M10.9127 26.0483C1.85939 22.23 5.43189 9.34082 11.7169 7.21165C14.3244 6.32832 17.2002 9.25915 17.1827 11.0783C17.1744 11.8658 16.7686 12.6325 16.3452 13.4325C15.7902 14.4817 15.2052 15.5858 15.4536 16.8633C15.8911 19.1133 16.3811 22.91 15.1186 24.7125C13.8561 26.5142 12.5869 26.7542 10.9127 26.0492V26.0483ZM11.5602 24.5133C12.2127 24.7883 12.5327 24.77 12.7086 24.7192C12.8894 24.6675 13.2419 24.4875 13.7536 23.7558C14.0644 23.3125 14.2761 22.3767 14.2569 20.9783C14.2402 19.6642 14.0277 18.2625 13.8177 17.1817C13.4811 15.4483 14.1727 14 14.6669 13.0442L14.9002 12.5983C15.0661 12.2867 15.1986 12.0358 15.3152 11.7675C15.4719 11.4092 15.5152 11.1975 15.5152 11.0617C15.5161 11.0183 15.4869 10.7983 15.2711 10.435C15.0342 10.0495 14.7332 9.70738 14.3811 9.42332C13.5786 8.76915 12.8019 8.60332 12.2519 8.78999C9.91022 9.58332 7.70855 12.6392 7.21439 16.225C6.73939 19.6642 7.91439 22.975 11.5602 24.5133ZM29.0786 7.21165C35.3636 9.34082 38.9369 22.23 29.8827 26.0492C28.2086 26.755 26.9394 26.5142 25.6769 24.7125C24.4144 22.91 24.9044 19.1133 25.3419 16.8633C25.5902 15.5858 25.0052 14.4817 24.4502 13.4317C24.0269 12.6325 23.6211 11.865 23.6136 11.0792C23.5952 9.25915 26.4719 6.32832 29.0786 7.21165ZM28.0869 24.72C28.2627 24.77 28.5836 24.7883 29.2352 24.5133C32.8811 22.9758 34.0561 19.6642 33.5819 16.2242C33.0869 12.6392 30.8861 9.58332 28.5444 8.79082C27.9944 8.60332 27.2169 8.76915 26.4144 9.42415C26.0361 9.73249 25.7277 10.095 25.5252 10.435C25.3086 10.7983 25.2794 11.0183 25.2802 11.0617C25.2811 11.1975 25.3244 11.41 25.4802 11.7675C25.5969 12.0358 25.7302 12.2867 25.8952 12.5983C25.9661 12.7333 26.0444 12.88 26.1286 13.0442C26.6227 14 27.3152 15.4475 26.9786 17.1817C26.7677 18.2625 26.5561 19.665 26.5386 20.9783C26.5202 22.3767 26.7319 23.3125 27.0419 23.7558C27.5544 24.4875 27.9069 24.6675 28.0869 24.7192V24.72Z" fill="#A7A7A7"/>
<path d="M24.3041 19.4042L24.3624 20.235H24.3758C24.3758 20.235 24.3674 20.235 24.3549 20.2375C24.1702 20.2711 23.9951 20.3444 23.8416 20.4525C23.5999 20.6242 23.2449 21.0058 23.2449 21.9692V34.025H21.5783V21.9683C21.5783 20.4967 22.1699 19.5958 22.8741 19.0933C23.2368 18.8366 23.6526 18.6649 24.0908 18.5908C24.135 18.5838 24.1795 18.5783 24.2241 18.5742L24.2374 18.5725H24.2458C24.2458 18.5725 24.2474 18.5725 24.3041 19.4033V19.4042ZM16.4908 19.4042C16.4341 20.235 16.4324 20.235 16.4324 20.235H16.4199C16.4199 20.235 16.4283 20.235 16.4399 20.2375C16.6249 20.271 16.8003 20.3444 16.9541 20.4525C17.1958 20.6242 17.5508 21.0058 17.5508 21.9692V34.025H19.2174V21.9683C19.2174 20.4967 18.6258 19.5958 17.9208 19.0933C17.5581 18.8366 17.1422 18.6648 16.7041 18.5908C16.6598 18.5838 16.6154 18.5783 16.5708 18.5742L16.5583 18.5725H16.5491L16.4908 19.4033V19.4042Z" fill="#A7A7A7"/>
</svg>
